<?xml version="1.0" standalone="no"?>
<!DOCTYPE svg PUBLIC "-//W3C//DTD SVG 20010904//EN"
 "http://www.w3.org/TR/2001/REC-SVG-20010904/DTD/svg10.dtd">
<svg version="1.0" xmlns="http://www.w3.org/2000/svg"
 width="806.000000pt" height="806.000000pt" viewBox="0 0 806.000000 806.000000"
 preserveAspectRatio="xMidYMid meet">
<metadata>
Created by potrace 1.14, written by Peter Selinger 2001-2017
</metadata>
<g transform="translate(0.000000,806.000000) scale(0.100000,-0.100000)"
fill="#000000" stroke="none">
<path d="M4729 7016 c-2 -2 -43 -6 -91 -10 -48 -3 -108 -10 -132 -16 -25 -5
-49 -9 -53 -8 -9 2 -33 -3 -205 -38 -254 -51 -598 -187 -849 -335 -98 -58
-125 -70 -175 -74 -290 -27 -631 -129 -919 -274 -267 -135 -468 -282 -685
-500 -247 -248 -420 -501 -563 -821 -86 -192 -170 -490 -193 -681 -3 -30 -8
-57 -10 -60 -6 -10 -17 -232 -17 -334 0 -162 26 -441 49 -517 3 -10 8 -30 10
-45 14 -77 49 -201 90 -317 149 -427 409 -815 743 -1113 122 -109 252 -205
268 -199 7 3 13 -1 13 -10 0 -27 -373 -192 -519 -230 -9 -2 -49 -13 -90 -24
-41 -11 -92 -22 -115 -25 -23 -3 -48 -7 -56 -9 -68 -13 -90 -19 -90 -25 0 -18
391 73 495 114 34 14 67 25 73 25 7 0 12 4 12 9 0 5 14 11 31 15 50 10 252
110 374 186 97 60 146 95 300 212 51 39 137 119 204 187 90 93 261 310 261
330 0 6 4 11 10 11 5 0 50 53 101 118 170 218 466 532 624 662 114 94 295 230
351 265 127 77 181 107 256 145 45 22 87 45 92 49 11 8 206 88 236 97 8 2 61
19 117 38 97 33 302 78 408 91 28 3 59 8 71 10 60 13 277 4 384 -16 30 -6 66
-12 80 -14 64 -10 236 -76 299 -114 83 -51 202 -150 252 -212 65 -79 137 -193
153 -242 9 -27 22 -61 30 -75 12 -23 51 -152 61 -202 2 -8 8 -33 14 -55 6 -22
13 -65 16 -95 l7 -55 -22 40 c-88 160 -314 332 -494 375 -334 79 -635 -24
-828 -284 -142 -190 -197 -394 -167 -616 26 -190 122 -359 263 -462 28 -21 56
-41 61 -45 22 -18 144 -68 208 -84 37 -10 71 -21 76 -23 12 -8 279 -9 321 -2
19 3 71 8 115 11 44 3 98 8 120 11 117 14 232 18 330 10 39 -3 103 -9 144 -12
41 -3 83 -8 95 -10 12 -3 46 -9 76 -15 127 -24 353 -84 540 -143 465 -147 800
-233 763 -196 -6 7 -33 17 -60 22 -26 5 -58 11 -69 14 -50 10 -261 65 -284 74
-14 6 -34 12 -46 14 -12 2 -54 16 -95 30 -100 34 -279 89 -304 93 -11 1 -38 9
-60 17 -22 8 -53 17 -69 21 -26 6 -27 7 -12 24 9 10 16 22 16 27 0 4 -7 -2
-16 -14 -16 -24 -53 -29 -85 -12 -10 6 -40 15 -66 20 -112 24 -262 49 -315 54
-32 2 -63 8 -69 12 -14 8 -290 8 -369 0 -30 -4 -80 -9 -110 -11 -30 -3 -77 -8
-105 -11 -87 -10 -277 -11 -355 -2 -91 11 -220 54 -297 99 -56 33 -181 144
-172 153 2 2 51 -5 109 -15 138 -26 149 -28 255 -36 188 -14 458 -4 585 22 14
3 42 7 64 10 21 3 41 7 45 9 3 2 24 7 46 10 22 4 48 9 57 12 9 3 25 7 35 9 24
6 113 35 138 45 11 5 58 22 105 38 107 38 118 43 269 120 111 57 213 116 244
143 7 5 33 24 58 42 73 50 154 122 285 252 145 145 222 240 324 399 69 107 93
150 148 260 8 16 34 77 58 135 48 116 48 117 18 -89 -3 -19 -12 -62 -20 -95
-9 -33 -17 -71 -18 -85 -3 -33 -80 -291 -107 -357 -91 -228 -211 -458 -330
-630 -16 -23 -29 -45 -29 -50 0 -4 -18 -28 -40 -52 -22 -24 -40 -47 -40 -51 0
-4 -15 -22 -32 -41 -18 -19 -55 -61 -83 -94 -27 -33 -65 -76 -85 -95 -19 -19
-46 -49 -60 -65 -29 -36 62 46 100 89 13 15 38 43 55 61 47 50 100 114 149
180 25 33 50 66 56 72 6 7 20 30 32 50 12 21 37 58 54 83 17 25 41 63 52 85
11 22 37 72 58 110 78 147 96 182 124 250 55 135 80 204 80 218 0 8 7 29 16
47 19 38 30 77 49 177 8 40 19 82 25 94 7 12 10 32 7 45 -2 14 -1 27 3 29 8 5
15 47 26 140 3 28 7 64 9 80 2 17 6 68 9 115 l5 85 -31 -95 c-17 -52 -39 -113
-49 -135 -10 -22 -27 -65 -38 -95 -10 -30 -40 -93 -65 -140 -25 -47 -56 -105
-67 -130 -12 -25 -25 -47 -29 -50 -3 -3 -39 -52 -80 -110 -40 -58 -81 -114
-91 -125 -10 -11 -29 -32 -41 -47 -79 -92 -139 -157 -182 -197 -27 -25 -56
-53 -65 -63 -81 -83 -409 -301 -546 -362 -22 -10 -60 -28 -85 -41 -69 -34
-399 -143 -453 -149 -26 -3 -51 -7 -55 -10 -4 -2 -26 -7 -47 -9 -22 -3 -47 -8
-55 -10 -16 -6 -106 -16 -205 -24 -121 -9 -388 -3 -400 9 -2 2 20 28 49 58 91
95 208 251 303 405 100 162 203 389 278 617 25 75 31 85 47 77 37 -20 155
-114 192 -153 53 -57 139 -191 161 -251 10 -27 22 -54 28 -60 7 -7 8 -7 4 0
-3 6 -8 47 -11 93 -11 141 -16 174 -47 292 -55 207 -120 349 -224 484 -26 35
-29 46 -26 90 12 129 1 561 -14 586 -1 3 -6 28 -9 55 -6 41 -25 137 -41 205
-47 200 -113 383 -211 579 -254 512 -686 945 -1191 1195 -145 72 -165 81 -256
114 l-78 29 58 35 c85 52 350 183 408 201 191 61 406 114 489 122 23 2 52 6
66 9 61 14 414 22 495 11 92 -13 232 -35 253 -41 15 -4 22 -2 22 8 0 8 -20 19
-47 27 -27 8 -53 18 -59 22 -31 24 -274 101 -396 124 -9 2 -50 13 -90 24 -69
19 -186 38 -292 47 -26 2 -52 7 -57 10 -10 6 -504 16 -510 10z m415 -30 c92
-7 118 -10 226 -27 36 -5 83 -12 105 -14 109 -10 519 -124 544 -152 3 -3 -3
-3 -15 1 -79 24 -546 25 -634 1 -8 -2 -33 -6 -55 -10 -86 -12 -114 -18 -242
-51 -161 -42 -273 -82 -378 -134 -44 -22 -84 -40 -89 -40 -13 0 -235 -133
-301 -181 -33 -24 -78 -56 -100 -70 -92 -60 -363 -342 -498 -519 -51 -66 -177
-284 -177 -305 0 -3 5 -3 12 1 7 4 8 3 4 -5 -4 -6 -12 -9 -17 -6 -11 7 -61
-99 -114 -240 -64 -172 -79 -229 -130 -494 -24 -128 -25 -671 0 -711 2 -3 6
-26 10 -50 4 -25 9 -52 10 -60 2 -8 4 -25 4 -38 1 -15 5 -21 13 -16 8 5 9 2 5
-9 -4 -10 2 -45 13 -79 10 -34 17 -65 14 -70 -3 -4 0 -8 5 -8 6 0 10 -3 9 -7
-5 -17 56 -192 65 -186 6 4 7 1 2 -6 -4 -7 2 -31 13 -54 29 -62 83 -177 98
-213 l13 -31 -162 -165 c-89 -91 -179 -185 -199 -209 -20 -24 -64 -75 -97
-114 -56 -65 -190 -234 -329 -414 -31 -41 -97 -117 -146 -168 l-89 -93 -63 87
c-35 49 -67 93 -71 98 -14 17 -89 137 -117 187 -30 53 -153 305 -175 358 -28
68 -52 136 -71 200 -11 36 -25 79 -31 97 -5 18 -12 40 -14 50 -2 10 -18 71
-34 136 -32 122 -57 294 -72 482 -7 100 -4 479 5 494 2 3 7 38 11 76 14 148
83 448 140 620 72 212 195 469 305 635 20 30 50 75 66 100 16 25 31 47 34 50
3 3 17 21 30 40 183 266 597 640 913 825 111 64 298 158 397 197 135 55 387
130 525 157 28 6 59 12 70 15 20 4 71 11 163 22 26 3 58 7 72 10 14 2 70 6
125 10 55 3 101 7 103 8 4 4 198 -1 296 -8z m-1404 -1200 c0 -2 -8 -10 -17
-17 -16 -13 -17 -12 -4 4 13 16 21 21 21 13z m-102 -146 c-7 -10 -14 -17 -17
-15 -4 4 18 35 25 35 2 0 -1 -9 -8 -20z m-48 -80 c-6 -11 -13 -20 -16 -20 -2
0 0 9 6 20 6 11 13 20 16 20 2 0 0 -9 -6 -20z m-27 -45 c-3 -9 -8 -14 -10 -11
-3 3 -2 9 2 15 9 16 15 13 8 -4z"/>
<path d="M5335 3329 c-219 -51 -435 -236 -525 -449 -31 -73 -60 -170 -51 -170
4 0 13 21 20 47 18 71 76 189 125 257 108 151 258 251 461 310 55 15 33 19
-30 5z"/>
<path d="M4750 2693 c-1 -5 -5 -27 -9 -51 -5 -24 -5 -40 -1 -35 9 10 22 93 15
93 -3 0 -5 -3 -5 -7z"/>
<path d="M2380 1579 c-47 -41 -188 -149 -194 -149 -3 0 -25 -13 -49 -30 -25
-16 -48 -30 -53 -30 -4 0 -15 -7 -24 -15 -21 -19 -110 -69 -190 -106 -36 -16
-74 -34 -85 -39 -56 -27 -324 -107 -390 -116 -16 -3 -55 -10 -85 -16 -58 -11
-86 -14 -240 -24 -52 -3 -97 -8 -100 -11 -6 -7 300 4 320 10 8 3 38 8 65 11
28 3 66 8 84 10 37 6 172 42 206 56 11 4 49 18 85 31 36 12 68 28 72 33 4 6 8
7 8 3 0 -18 365 195 400 234 3 3 39 31 80 62 95 73 147 117 135 117 -6 -1 -26
-15 -45 -31z"/>
<path d="M6148 1606 c-1 -2 -53 -6 -114 -10 -61 -4 -121 -9 -134 -11 -12 -2
-47 -6 -76 -7 -30 -2 -54 -6 -54 -11 0 -4 12 -5 28 -3 106 18 455 26 552 13
66 -9 219 -36 240 -42 8 -2 31 -6 50 -9 19 -4 51 -10 70 -15 19 -5 62 -17 95
-26 33 -8 67 -17 75 -20 8 -2 32 -9 53 -15 20 -5 52 -14 70 -19 81 -22 298
-90 308 -97 7 -4 10 -2 7 6 -2 7 -11 14 -19 16 -7 1 -52 14 -99 29 -350 108
-567 164 -740 191 -25 3 -54 8 -65 10 -11 3 -65 7 -120 10 -55 3 -105 7 -112
9 -6 2 -13 2 -15 1z"/>
<path d="M5590 1559 l-85 -6 91 0 c50 0 108 3 130 7 l39 8 -45 -2 c-25 0 -83
-4 -130 -7z"/>
<path d="M128 1418 c6 -6 18 -8 28 -6 14 3 12 5 -9 10 -19 3 -25 2 -19 -4z"/>
<path d="M257 1389 c5 -5 27 -12 49 -14 44 -6 37 -1 -20 14 -26 7 -36 7 -29 0z"/>
<path d="M374 1361 c4 -6 11 -9 16 -6 4 3 40 -2 80 -10 85 -18 80 -18 80 -4 0
6 -6 9 -14 6 -8 -3 -17 -3 -20 0 -3 4 -16 7 -29 8 -12 1 -44 5 -71 10 -36 6
-47 5 -42 -4z"/>
<path d="M1109 1356 c-8 -7 -233 -18 -394 -18 -107 0 -142 -3 -105 -7 49 -7
366 -4 445 3 17 2 40 4 53 4 12 1 22 7 22 12 0 10 -13 14 -21 6z"/>
</g>
</svg>
